<svg viewBox="131.186 73.85986078886312 283.02 65.03944315545243" xmlns="http://www.w3.org/2000/svg" version="1.2" style="max-height: 500px" width="283.02" height="65.03944315545243">
	<title>New Project</title>
	<style>
		.s0 { fill: #ff4e47 } 
		.s1 { fill: #f7ca59 } 
		.s2 { fill: #2c75bb } 
		.s3 { fill: #eecb4f } 
		.s4 { fill: #ef4f4d } 
		.s5 { fill: #231f20 } 
	</style>
	<path d="m134.3 136v-58.3h40.6v11.4h-25.5v10.8h24v11.4h-24v24.7zm51 0v-58.3h40.6v11.4h-25.6v10.8h24v11.4h-24v13.3h26.4v11.4zm92.6-56.5v12.4q-4.8-2.2-9.4-3.3-4.6-1.1-8.6-1.1-5.4 0-8 1.5-2.6 1.5-2.6 4.6 0 2.4 1.8 3.7 1.7 1.3 6.3 2.2l6.4 1.3q9.7 2 13.8 5.9 4.1 4 4.1 11.4 0 9.6-5.7 14.3-5.7 4.7-17.5 4.7-5.5 0-11.1-1-5.6-1.1-11.2-3.1v-12.7q5.6 2.9 10.8 4.5 5.2 1.4 10.1 1.4 4.9 0 7.5-1.6 2.6-1.6 2.6-4.7 0-2.7-1.8-4.2-1.7-1.5-7-2.7l-5.9-1.3q-8.7-1.8-12.8-5.9-4-4.1-4-11.1 0-8.7 5.6-13.4 5.7-4.7 16.2-4.7 4.8 0 9.9 0.8 5.1 0.7 10.5 2.1z" class="s0" id="FESTIE"/>
	<path d="m284.4 89.1v-11.4h53.7v11.4h-19.3v46.9h-15v-46.9zm58.9 46.9v-58.3h15v58.3zm26 0v-58.3h40.6v11.4h-25.5v10.8h24v11.4h-24v13.3h26.4v11.4z" class="s1" id="FESTIE"/>
	<g id="Folder 1">
		<path d="m118.7 94.2v21.4h-35.3c0-11.8 9.6-21.4 21.4-21.4z" class="s2" id="&lt;Path&gt;"/>
		<path d="m46.3 120.2h21.5v21.4c-11.8 0-21.4-9.6-21.5-21.4z" class="s2" id="&lt;Path&gt;"/>
		<path d="m78 94.2v21.4h-31.6v-21.4z" class="s3" id="&lt;Path&gt;"/>
		<path d="m91.5 81.6v8.1h-45.2v-21.5h31.1c7.8 0 14.1 6 14.1 13.4z" class="s4" id="&lt;Path&gt;"/>
		<path d="m120.5 128.3v-8.1h-45.2v21.4h31.1c7.8 0 14.1-6 14.1-13.3z" class="s4" id="&lt;Path&gt;"/>
		<path d="m106.7 104.9c0 1-0.8 1.7-1.7 1.7-1 0-1.7-0.7-1.7-1.7 0-0.9 0.7-1.7 1.7-1.7 0.9 0 1.7 0.8 1.7 1.7z" class="s5" id="&lt;Path&gt;"/>
	</g>
</svg>